<?xml version="1.0" encoding="utf-8"?>
<!-- Svg Vector Icons : http://www.onlinewebfonts.com/icon -->
<!DOCTYPE svg PUBLIC "-//W3C//DTD SVG 1.1//EN" "http://www.w3.org/Graphics/SVG/1.1/DTD/svg11.dtd">
<svg version="1.1" xmlns="http://www.w3.org/2000/svg" xmlns:xlink="http://www.w3.org/1999/xlink" x="0px" y="0px" viewBox="0 0 256 256" enable-background="new 0 0 256 256" xml:space="preserve">
<metadata> Svg Vector Icons : http://www.onlinewebfonts.com/icon </metadata>
<g><g><g><g><path fill="#000000" d="M10,128C10,62.9,62.9,10,128,10c65.1,0,118,52.9,118,118c0,30.8-11.7,59.7-33,81.8l-50.7-17.6v-18.9c11.5-6.4,18.7-18.4,18.7-31.7V72.6c0-20-16.3-36.3-36.3-36.3h-33.5c-20,0-36.3,16.3-36.3,36.3v68.9c0,13.3,7.2,25.4,18.7,31.7v18.4l-51,17.7C21.6,187.4,10,158.6,10,128z"/><path fill="#000000" d="M128,246c-28.3,0-55.1-9.9-76.5-28.2l53.6-18.6l-0.4-4.2c0-0.4-0.1-0.8-0.1-1.2c0-0.3-0.1-0.6-0.1-0.8v-26.7l-3.3-1.4c-9.4-4-15.4-13.2-15.4-23.4V72.6c0-12.3,8.7-22.5,20.3-24.9c1.7-0.3,3.4-0.5,5.1-0.5h33.5c1.8,0,3.5,0.2,5.1,0.5c11.6,2.4,20.3,12.6,20.3,24.9v68.9c0,10.2-6,19.3-15.4,23.4l-3.3,1.4V193c0,0.4-0.1,0.8-0.1,1.3l-0.6,5.4l53.3,18.5C182.8,236.2,156.1,246,128,246z"/></g></g><g></g><g></g><g></g><g></g><g></g><g></g><g></g><g></g><g></g><g></g><g></g><g></g><g></g><g></g><g></g></g></g>
</svg>